<?xml version="1.0" encoding="UTF-8"?>
<svg version="1.1" viewBox="0 0 1300 1300" width="1300" height="1300" xmlns="http://www.w3.org/2000/svg">
<path transform="translate(0)" d="m0 0h1300v1300h-1300z" fill="#FCC530"/>
<path transform="translate(785,352)" d="m0 0h6l13 13v2l4 2 7 8 8 8 7 8 10 10 7 8 5 5 16-2 44-8 10-1 1 11-7 2-49 9-5-1-2-1h-6v2l-11 4-19 3v-2l-4-1-4 4-8 2-45 8-47 8-44 8-24 4-45 8-13 2-34 6-44 8-29 5-12 2-8 1 1-2h-5l2 2-5 2-7-7-6-1 2 4 4 4v1l-13 2-2-1v2l-18 2h-2l-3 2-25 4-41 7-1 1-1 13-16 24-21 32-12 18 83-1 8-12 15-23 18-27 8-11 1-1h88l-2 5-8 11-10 16-7 10-9 14-12 18 83 1 2-5 16-24 13-20 10-15 7-10 1-1h88l-2 5-8 12-27 41-10 15-1 2 83-1 10-16 38-57 1-1h88l-1 4-34 51-13 20 83-1 8-12 11-17 30-45h4v184l-3 9h-13l-8 4-4 6-1 4v9l3 6 5 5 4 2h13l4-1v4h-8l-8 3-5 5-3 7v9l1 4h-3l-3-8-2-2 1-5 1-3v-10l-3-7-8-6-4-1h-7l-10 5-5 10-1 5-4-1h-8l-8 4-4 4-2 6-1 9-15 1-5 3-2 7 3 7 5 2 14 1v7l1 1 3 22 9 65 8 57 7 52 7 50v2h-61l-2-6-2-11-8-1-5-4-2-5v-8l3-5 6-4-3-17-10-2-4-5-2-8 5-5 16-10 3-1-1-6h48v-7l-48-1 4-6-7-11-3-4v-2l-4 2h-7l-7-4-3-6v-8l4-6v-3l-8-12-10 1-7-4-4-8 1-7 4-6-9-14-3 1h-8l-6-4-4-8 1-7 4-5-2-5-5-7-5-1v-2h-7l-1 2-4-4-4-1-4 2-1 2-11 7-23 15-27 18-16 10-15 10-17 11-69 45-15 10-11 7-5 2 1 8-37 1-3 24-5 20-8 21-8 15-4 7-8 12-8 10-10 11-5 5-4 2-1 3-6 4-5 5-9 6-3 1v2l-16 8-20 9-26 7-2 1-16 2h-40l-23-4-21-6-11-5-16-8-12-7-10-7-14-12-5-4-7-8-9-10-7-10-11-18-6-12-6-16-3-10-1-1-5-30-1-10v-16l3-26 5-21 9-24 12-22 8-11 9-12h2l2-4 16-16 11-8 14-10 9-5h2v-48l-1-138-2-1v-150l80-14 7-1 8 8 7 8 14 14 7 8 7 7v2l3 1 7 8 8 8 9-1 64-11 8-2-8-8-7-8-8-8-7-8-11-11-7-8-11-11v-3l80-14h8l7 8 9 9v2h2l7 8 4 4v2h2l7 8 13 13 7 8 1 1 12-1 57-10 12-2-4-6-13-13-7-8-9-9-7-8-12-12-7-8 1-2 12-1 6-2 63-11h6l9 9 7 8 10 10 7 8 6 7 19 19v2l4 1 79-14-6-7-1-3-4-2-7-8-8-8-7-8-10-10-7-8-9-9v-2l25-5z" fill="#ECEBEB"/>
<path transform="translate(785,352)" d="m0 0h6l13 13v2l4 2 7 8 8 8 7 8 10 10 7 8 5 5 16-2 44-8 10-1 1 11-7 2-49 9-5-1-2-1h-6v2l-11 4-19 3v-2l-4-1-4 4-8 2-45 8-47 8-44 8-24 4-45 8-13 2-34 6-44 8-29 5-12 2-8 1 1-2h-5l2 2-5 2-7-7-6-1 2 4 4 4v1l-13 2-2-1v2l-18 2h-2l-3 2-25 4-41 7-1 1-1 13-16 24-21 32-12 18 83-1 8-12 15-23 18-27 8-11 1-1h88l-2 5-8 11-10 16-7 10-9 14-12 18 83 1 2-5 16-24 13-20 10-15 7-10 1-1h88l-2 5-8 12-27 41-10 15-1 2 83-1 10-16 38-57 1-1h88l-1 4-34 51-13 20 83-1 8-12 11-17 30-45h4v184l-3 9h-13l-8 4-4 6-1 4v9l3 6 5 5 4 2h13l4-1v4h-8l-8 3-5 5-3 7v9l1 4h-3l-3-8-2-2 1-5 1-3v-10l-3-7-8-6-4-1h-7l-10 5-5 10-1 5-4-1h-8l-8 4-4 4-2 6-1 9-15 1-5 3-2 7 3 7 5 2 14 1v6l-21 1-147-1v-129h184v-8h-593v8h179v129l-26 1h-22l-12-10-15-10-19-10-21-8-15-4-16-3-9-1h-32l-20 3-17 4-15 5-16 7h-2v-47l-1-138-2-1v-150l80-14 7-1 8 8 7 8 14 14 7 8 7 7v2l3 1 7 8 8 8 9-1 64-11 8-2-8-8-7-8-8-8-7-8-11-11-7-8-11-11v-3l80-14h8l7 8 9 9v2h2l7 8 4 4v2h2l7 8 13 13 7 8 1 1 12-1 57-10 12-2-4-6-13-13-7-8-9-9-7-8-12-12-7-8 1-2 12-1 6-2 63-11h6l9 9 7 8 10 10 7 8 6 7 19 19v2l4 1 79-14-6-7-1-3-4-2-7-8-8-8-7-8-10-10-7-8-9-9v-2l25-5z" fill="#3F3F3D"/>
<path transform="translate(721,822)" d="m0 0 6 2 2 3 1-1h7l6 3 7 10-2 4-3 7 1 6 4 6 4 2h8l3-1 7 10 3 6-3 3-2 4 1 8 3 5 6 3 10-1 10 15-4 5-1 2v8l3 6 6 3h7l4-1 8 12 3 6-4 4 47 1 1 4-1 4-3 1-45-1 1 6-22 14-1 3 3 9 4 3 8 1 2 7 2 11-8 6-1 3v8l3 6 3 2 8 1 2 6 2 13-7 4-3 7 2 9 5 5 7 1 2 2 2 7 1 12-6 4-2 2-1 8-2 2-17 4-16 3-49 10-23 5-31 6-25 5-24 5-45 9-14 3h-6l-5-7-4-2-7-2-3-13v-7l6-3 3-6v-7l-3-6-6-3-6-1-3-13v-5l6-4 2-4v-9l-3-6-3-2-7-1-3-5-2-13 7-5h2l1-9-3-8-4-3-8-1-3-11-1-9 4-4 1-2v-8l-3-5-6-4-11 1-9-13 2-4 2-2v-6l-1-5v-3l16-10 12-8 26-17 23-15 37-24 15-10 37-24 27-18 13-8h2l1-2z" fill="#FAE9D4"/>
<path transform="translate(896,748)" d="m0 0h7l7 3 7 6 2 6v10l-2 5 1 4 3 5v4l2-1-1-3v-9l3-7 5-5 5-3 9-1 8 3 5 5 4 5 7-4h11l4 1 3-10 7-6 5-2h10l8 5 3 2 2 4 3 1v-2l6-2h10l10 6 4 7 1 7 4-1h8l5 1 1-9 5-6 8-4h10l8 4 5 7 4-2 5-4 5-2h9l4 1 2-8 5-7 8-4h10l9 5 5 8 1 7-2 9-1 4 3 5 1 4 23 1 4 2 2 5v7l-6 7h-45l-1 14-15 129-12 104-7 61-3 22-1 1h-42v-9l6-54 3-22 20-174 8-68 1-4h-72v314l-1 17h-42l-1-6v-141l1-184h-66l2 12 11 95 3 25 1 9 13 112 2 12 1 14 5 43v9h-42l-2-7-15-130-15-129-6-50-1-15h-49l-6-3-3-7 2-7 6-4h15v-9l3-7 7-6 5-2h8l3 1 4-11 5-5z" fill="#ECEBEB"/>
<path transform="translate(768,975)" d="m0 0h10l3 11 6 26 3 18 3 14 8 41 2 6 2 13 2 6 1 10-12 3-37 8-18 3-30 7-23 5-16 2-30 7-34 7-14 2h-7l-4-17-6-31-5-23-2-13-3-12-9-45v-4l32-8 15-2 6-2 23-4 12-3 29-5 22-5 25-5 12-3 13-2z" fill="#FAEAD4"/>
<path transform="translate(463,689)" d="m0 0h214v129l-198 1-16-1z" fill="#3E3E3D"/>
<path transform="translate(785,352)" d="m0 0h6l13 13v2l4 2 7 8 8 8 7 8 10 10 7 8 5 5 16-2 44-8 10-1 1 11-7 2-49 9-5-1-2-1h-6v2l-11 4-19 3v-2l-4-1-4 4-8 2-45 8-47 8-44 8-24 4-45 8-13 2-34 6-44 8-29 5-12 2-8 1 1-2h-5l2 2-5 2-7-7-6-1 2 4 4 4v1l-13 2-2-1v2l-18 2h-2l-3 2-25 4-41 7-2 1v-13l27-5 51-9 3-1-8-8-7-8-8-8-7-8-11-11-7-8-11-11v-3l80-14h8l7 8 9 9v2h2l7 8 4 4v2h2l7 8 13 13 7 8 1 1 12-1 57-10 12-2-4-6-13-13-7-8-9-9-7-8-12-12-7-8 1-2 12-1 6-2 63-11h6l9 9 7 8 10 10 7 8 6 7 19 19v2l4 1 79-14-6-7-1-3-4-2-7-8-8-8-7-8-10-10-7-8-9-9v-2l25-5z" fill="#CD9D25"/>
<path transform="translate(417,826)" d="m0 0h297l-1 3-16 10-42 28-16 10-15 10-17 11-69 45-15 10-11 7-3 2h-38l-3-34-6-24-6-17-9-19-10-16-10-13-1-3h-2v-2h-2l-5-6z" fill="#3F3F3D"/>
<path transform="translate(742,826)" d="m0 0h110l3 2 8 57 4 31 3 20 7 50 6 44 5 38h-61l-2-6-2-11-8-1-5-4-2-5v-8l3-5 6-4-3-17-10-2-4-5-2-8 5-5 16-10 3-1-1-6h48v-7l-48-1 4-6-7-11-3-4v-2l-4 2h-7l-7-4-3-6v-8l4-6v-3l-8-12-10 1-7-4-4-8 1-7 4-6-9-14-3 1h-8l-6-4-4-8 1-7 4-5-2-5-5-7z" fill="#3F3F3D"/>
<path transform="translate(1040,812)" d="m0 0h72l-2 20-10 88-14 120-4 35-3 25-5 40-1 3h-33z" fill="#F7465B"/>
<path transform="translate(931,812)" d="m0 0h66v327l-1 4h-26l-3-17-5-43v-7l-3-20-12-103-1-9-12-102z" fill="#F7475B"/>
<path transform="translate(853,812)" d="m0 0h35l2 15 8 66 13 113 13 112 2 18v7h-26l-2-2-2-9-1-12-2-13-7-49-7-50-12-88-3-21-6-43-4-28-1-8-1-4z" fill="#F7475B"/>
<path transform="translate(1155,812)" d="m0 0h34v8l-2 8-4 36-2 11-3 24-8 61-1 1-3 26-12 86-9 65-2 5h-26l1-17 6-50 10-87 12-103 8-68z" fill="#F7465B"/>
<path transform="translate(368,840)" d="m0 0h11l12 3 12 6 10 9 7 11 4 11 1 14-2 11-5 12-7 9-8 7-6 4-11 4-6 1h-13l-16-5-9-6-6-5-9-14-3-8-1-6v-14l4-14 6-10 10-10 11-6 9-3z" fill="#343433"/>
<path transform="translate(384,952)" d="m0 0h8l13 3 10 5 1 2h-11v8h20l5 4 6 12 2 8v19l-4 12-6 10-9 9-8 5-11 4-5 1h-14l-14-4-12-7v-2l-4-2-8-11-5-12-1-6v-13l3-12 5-10 9-10 9-7 15-5z" fill="#333"/>
<path transform="translate(264,796)" d="m0 0h10l10 2 10 4 9 6 8 8v2h-35v8h40l3 7 1 5v18l-2 8-6 12-9 10-10 7-12 4-5 1h-12l-12-3-10-5-10-9-7-9-4-9-2-10v-13l5-16 6-9 5-5 7-6 10-5z" fill="#333"/>
<path transform="translate(1197,55)" d="m0 0 9 1 4 2h7l3-1h8l5 5 7 6v2h2v2h2v2l4 2 8 8v2h2v2h2l1 3v8l-9 10-46 46h-2v2l-6 3-7-2-5-4v-2l-4-2-14-14v-2h-2v-2l-3-1v-2l-3-1-1-2v-8l1-9-1-5h-2v-9l4-6 33-33z" fill="#FCC52F"/>
<path transform="translate(471,970)" d="m0 0h38v6l-4 4 2 5 6 9 11-1 6 4 3 3 1 3v8l-3 5-2 2 3 19 3-1 6 2 5 5 2 8-2 7-8 5v6l-101-1 2-5 6-9 8-16 8-20 5-18 3-18 1-11z" fill="#403F3D"/>
<path transform="translate(462,55)" d="m0 0h9l6 3 7-1h9l8 7 3 2v2h2v2h2v2h2v2h2v2l3 1 7 8 5 5v8l-9 10-40 40h-2l-2 4-8 7h-7l-6-4-3-3v-2l-4-2-21-21-1-8 2-10-3-6v-9l3-5 20-20h2l2-4 8-8z" fill="#FCC52F"/>
<path transform="translate(95,422)" d="m0 0h9l5 3 8-1h9l8 7 25 25 1 2v7l-5 7-8 7-46 46-2 1h-7l-6-4v-2l-4-2-8-8v-2l-4-2-3-3v-2l-4-2-5-6-1-7 2-5-1-7-3-7 2-9 21-21h2l2-4 9-9z" fill="#FCC52F"/>
<path transform="translate(95,1156)" d="m0 0 10 1 3 2h7l9-1 5 3 21 21 3 2v2h2l4 5v9l-5 6h-2l-2 4h-2l-2 4-11 11h-2l-1 3h-2l-2 4-4 4h-2v2h-2l-2 4-8 8h-2l-2 4-7 6h-8l-5-3-7-8-8-7-4-5-8-7-2-4v-7l1-9-3-6v-8l3-5 6-7 8-7 18-18h2v-2z" fill="#FCC52F"/>
<path transform="translate(832,1156)" d="m0 0 8 1 4 2 15-1 6 3 1 3 3 1v2l4 2 20 20 2 4v6l-7 9-7 6-5 5-4 5-7 6-5 5-4 5-7 6-13 13-2 1h-8l-10-8-7-8-16-16-1-2 1-10 1-6-3-5-1-6 3-8 5-4 3-4h2v-2h2v-2h2l1-3 5-4 1-2h2l1-3h2v-2h2v-2h2l1-3z" fill="#FCC52F"/>
<path transform="translate(852,424)" d="m0 0h8l4 2v2l3 1 5 6 12 12 2 1v2h2l6 8v7l-3 5h-2l-1 3-3 3h-2l-2 4-43 43-5 3h-7l-6-4-9-9v-2l-4-2-4-4v-2h-2v-2l-4-2-5-6v-9l1-8-3-7v-8l3-5 8-7 15-15h2l2-4 1 2h3v2l13-3 12-3 5-1v-2z" fill="#FCC52F"/>
<path transform="translate(785,352)" d="m0 0h6l13 13v2l4 2 7 8 8 8 7 8 10 10 7 8 4 4v3l-21 4-19 3-41 7h-6l-8-8v-2l-4-2-7-8-8-8-7-8-10-10-7-8-9-9v-2l25-5z" fill="#3E3E3D"/>
<path transform="translate(616,382)" d="m0 0h6l9 9 7 8 10 10 7 8 6 7 19 19v2h2v2l-26 5-57 10-6-1-9-10-8-8-7-8-9-9-7-8-12-12-7-8 1-2 12-1 6-2z" fill="#3F3E3D"/>
<path transform="translate(445,412)" d="m0 0h8l7 8 9 9v2h2l7 8 4 4v2h2l7 8 13 13 7 8 1 3-32 6-37 6-17 3-8-7-11-12-16-17-8-8-7-8-11-11v-3z" fill="#3F3F3D"/>
<path transform="translate(528,397)" d="m0 0h6l7 7 7 8 12 12 7 8 9 9 7 8 9 9 3 4-7 2-47 8-24 4h-5l-8-8-7-8-13-13v-2h-2l-7-8-4-4v-2h-2l-7-8-9-9-1-3 12-3 29-5 24-4z" fill="#ECEBEB"/>
<path transform="translate(361,426)" d="m0 0 4 2 18 18 7 8 11 11 7 8 8 8 7 8 2 3-37 7-41 7-5-1-14-14-7-8-10-10-7-8-11-11v-2l-3-1-7-8-1-3 44-8 25-4z" fill="#ECECEC"/>
<path transform="translate(872,337)" d="m0 0 7 6 7 8 8 8 7 8 8 8v2l3 1 7 8 11 11 3 4v2l-13 3-36 6-29 5-4-1-11-11-7-8-10-10-7-8-8-8-7-8-9-9v-3l16-3 56-10z" fill="#ECEBEB"/>
<path transform="translate(701,367)" d="m0 0 5 3 14 14 7 8 7 7v2l3 1 7 8 8 8 7 8 5 6-5 2-63 11-13 2-19-19-7-8-9-9-7-8-10-10-7-8-3-4 20-4 47-8z" fill="#ECEBEB"/>
<path transform="translate(515,531)" d="m0 0h83l-2 5-8 12-17 26-14 21-7 11h-84l5-9 9-13 11-17 20-30z" fill="#ECEBEB"/>
<path transform="translate(343,531)" d="m0 0h83l-2 5-7 10-14 21-15 23-8 12-3 4h-83l2-5 8-11 10-16 20-30z" fill="#ECEBEB"/>
<path transform="translate(860,531)" d="m0 0h83l-3 6-30 45-7 11-8 12-1 1h-83l2-5 44-66z" fill="#ECEBEB"/>
<path transform="translate(688,531)" d="m0 0h83l-7 12-7 10-22 33-11 17-2 3h-83l2-5 10-15 23-35 8-12z" fill="#ECEBEB"/>
<path transform="translate(998,657)" d="m0 0h8l8 3 5 7 1 3v10l-4 8 2 11-3 9-5 5-5 2h-9l-7-3-6-8h-11v2l6 2 5 9 1 9-2 6 1 5 3 8v7l-3 9-7 6-7 2-10-1-6-4-5-5-5 2h-13l-8-5-4-6-1-3v-9l3-7 5-5 6-3h13l3-12 10-7 11-1-8-7-2-5v-10l3-6 5-4 5-2h10l4 1 3-6 7-6z" fill="#ECEBEB"/>
<path transform="translate(768,975)" d="m0 0h10l3 11 6 26 3 18 3 14 8 41 2 6 2 13 2 6 1 10-12 3-37 8-18 3-30 7-23 5-16 2-30 7-34 7-14 2h-7l-4-17-6-31-5-23-2-13-3-12-9-45v-4l32-8 15-2 6-2 23-4 12-3 29-5 22-5 25-5 12-3 13-2zm-5 4-18 4-16 3-27 6-14 3-11 2-13 3-14 2-28 6-25 5-19 4-6 2 1 10 7 35 3 13 3 17 11 50 3 15 2 1 27-5 12-3 14-3 29-6 24-4 44-10 36-7 6-2-1-10-6-28-8-37-3-19-6-28-4-19z" fill="#EF5651"/>
<path transform="translate(1198,789)" d="m0 0 9 1 3 2 17-1 5 3 11 11v2l4 2 12 12 3 4v7l-3 5h-2l-1 3-7 6-5 5-4 5-7 6-5 5-4 5-7 6-14 14-2 1h-8l-8-7-5-6 1-10 3-21 2-21 3-16 11-1 5-6v-7l-1-5-10-2z" fill="#FCC52F"/>
<path transform="translate(277,920)" d="m0 0h13l10 3 10 6v2l4 2 6 10 3 9v13l-3 10-6 10-8 7-7 4-8 2h-15l-10-3-9-7-5-5-6-11-2-12 2-14 6-11 8-8 10-5z" fill="#343433"/>
<path transform="translate(191,976)" d="m0 0 12 1 13 4 10 7 6 5 7 11 4 10 1 5v17l-4 13-6 10h-2l-2 4-8 7-4 2-4-1-11-14-13-18-10-16-8-15-5-14-2-9 7-4 8-3z" fill="#343433"/>
<path transform="translate(197,748)" d="m0 0h1v45l-14 8-16 12-9 7-14 14-1 2h-2l-2 4-10 13-9 15-8 15-8 22-5 21-3 26v16l3 24 3 16 3 8 5 14 6 13 9 16 7 10 7 9 11 12 5 5 12 11 10 7 13 8 15 8 13 5 8 3 3 1v2l-9-1-23-8-16-8 1-3-4 1-8-4-15-11-10-9-8-7-8-8-6-8v-2h-2l-9-13-7-12-8-17-7-19-5-24-1-7v-42l2-14 4-18 7-20 9-19 14-21 9-11 4-5h2v-2h2l2-4h2v-2h2v-2l11-9 10-8 11-7 8-4 1-32z" fill="#F2B20F"/>
<path transform="translate(288,1021)" d="m0 0h19l13 4 9 6 6 5 7 10 4 8 2 7v7l-11 1-15 6-15 4-17 2h-13l-21-3-9-3v-12l4-13 6-10 10-10 8-5z" fill="#333"/>
<path transform="translate(198,869)" d="m0 0 6 1 11 8 9 11 5 13 1 4v19l-4 12-7 11-8 8-11 6-8 3-6 1h-13l-11-3v-11l2-16 4-16 9-20 11-17 5-6 4-4z" fill="#343433"/>
<path transform="translate(827,1068)" d="m0 0h61l4 25 3 24 1 3 2 16 2 6h27l42 1 1-3v3h26l1-2v2h42v-17h1v17h33l1-3v3l43-1 19 1-1 9h-246l-3-16-5-40-2-13h-61l-1-1 1-7 4-4z" fill="#F0B00B"/>
<path transform="translate(192,469)" d="m0 0h3l1 99-1 38 3 1 1 139-8 7-6 5v-138h-3v-64h2l5 5v2h2l2 2-4-5-2-1v-2h-2l-3-4v-82z" fill="#CD9D25"/>
<path transform="translate(368,840)" d="m0 0h11l12 3 12 6 10 9 7 11 4 11 1 14-2 11-5 12-7 9-8 7-2-1-2-9-6-16-5-9v-2h-2l-2-6h-2l-3-5-1-3h-2l-8-10-8-6v-2l-8-4v-2l-5-2-3-1-3 1-2 4-4 1-2 1 2-4 8-8 11-6 9-3z" fill="#3F3F3D"/>
<path transform="translate(176,864)" d="m0 0h8l16 4-2 1-1 5-2 3h-2l-2 4-4 5-11 18-8 19-4 19-2 20-9-3-9-7-4-4-3-5-6-12-2-10v-12l3-13 8-13 2-3h2v-2l10-7 8-4 6-2z" fill="#FDC632"/>
<path transform="translate(337,1068)" d="m0 0h11v13l-3 10-6 11-5 6h-2v2l-10 7-12 4-5 1h-16l-10-3-10-5-10-9-6-9-5-12-1-9 20 4 10 1h13l22-3 18-6h3l1-2z" fill="#FCC530"/>
<path transform="translate(405,970)" d="m0 0h20l5 4 6 12 2 8v19l-4 12-6 10-9 9-8 5-11 4-5 1h-14l-14-4-2-2 1-2 5-3 2-3h3l1-4 4-6 2-1 1-3h2l2-6 4-7 2-5h2l1-8 5-16z" fill="#403F3D"/>
<path transform="translate(164,986)" d="m0 0 2 1 5 16 9 19 16 24 9 12 11 14-2 2-14 4h-15l-9-2-9-5-7-5v-2l-3-1-7-9-6-13-1-17 2-13 5-10 6-9z" fill="#FCC631"/>
<path transform="translate(264,796)" d="m0 0h10l10 2 10 4 9 6 8 8v2h-35v8h40l3 7 1 10-9-1-7-2-8-1h-24l-16 2-18 6-12 6h-2l-1 2-3 4-1-6v-13l5-16 6-9 5-5 7-6 10-5z" fill="#3F3F3D"/>
<path transform="translate(1088,704)" d="m0 0 8 1 8 5v2l7-4 6-4h11l9 5 5 8v13l-3 6-6 5-2 1-1 11-4 7-6 5-3 1h-13l-6-4-5-6-2-4v-8l-8-1-7-4-3-2-3-9v-8l4-9 9-6z" fill="#EDEBEA"/>
<path transform="translate(1040,644)" d="m0 0h9l7 3 8 9 1 10h9l9 5 5 6 1 3v11l-3 7-7 6-7 2-8-1-3-1-2 4-4 4-6 2h-9l-8-4-5-6-2-6 1-10 5-8-2-5-3-5-1-7 2-9 8-8z" fill="#ECEBEB"/>
<path transform="translate(922,328)" d="m0 0 3 1 7 39 1 6 4 22v6l-5-1-11-12-4-4v-2l-4-2-9-10-6-6v-2l-4-2-7-8-8-8-6-8 37-7z" fill="#3F3F3D"/>
<path transform="translate(817,1134)" d="m0 0h5v5l-9 3-41 8-39 8-13 3-16 3-13 3-37 7-8 2-22 4-12 3-27 5-15 3-2-1-3-7-5-2-6-1-3-12-1-9 4-2 3 1 3 13 8 2 5 5 2 3 10-1 31-6 63-13 31-6 23-5 35-7 24-5 16-3z" fill="#F2B311"/>
<path transform="translate(1020,661)" d="m0 0 4 2 6 12 2 5-5 8-1 10 4 9 7 5 13 2 2 1-4 5-6 3-5-1-4-6-5-2h-7l-6 3-4 7h-11l-7 4-2 4v8l3 6 5 3h11l6 7 2 1h11l5-4 1-2h2l2-4 2 7h2l4 4 4 2 1 11-5-4-7-4h-10l-6 1v2l-4-1-1-4-4-2-7-4h-10l-8 4-4 5-3 8h-15l-8 4-5-8-8-5 1-5 5 5 6 4 10 1 9-3 5-6 2-7v-7l-4-9 1-6 1-8-3-9-2-5-6-2v-2l11-1 6 8 7 3h9l7-2 2-4 3-9-2-12 4-7v-10l-1-6z" fill="#F2B415"/>
<path transform="translate(1197,55)" d="m0 0 9 1 4 2h7l3-1h8l5 5 7 6v2h2v2h2v2l4 2 8 8v2h2v2h2l1 3v8l-9 10-46 46h-2v2l-6 3-7-2-5-4v-2l-4-2-14-14v-2h-2v-2l-3-1v-2l-3-1-1-2v-8l1-9-1-5h-2v-9l4-6 33-33zm1 4-5 3-7 8-23 23v2h-2v7l3 5v10l-1 7 7 8 20 20h2v2l7 1 8-7 1-15 3-5 21-21 3-1h14l7-8 1-4-3-5-6-7h-2v-2l-8-7-12-12-7 1-8 1-10-4z" fill="#FED561"/>
<path transform="translate(95,1156)" d="m0 0 10 1 3 2h7l9-1 5 3 21 21 3 2v2h2l4 5v9l-5 6h-2l-2 4h-2l-2 4-11 11h-2l-1 3h-2l-2 4-4 4h-2v2h-2l-2 4-8 8h-2l-2 4-7 6h-8l-5-3-7-8-8-7-4-5-8-7-2-4v-7l1-9-3-6v-8l3-5 6-7 8-7 18-18h2v-2zm4 4-6 2-8 7-7 8-10 9v2h-2l-7 8v7l4 8-1 6-1 8 9 10 16 16h2l2 4 7 1 7-6 1-5v-9l3-6 4-4v-2l4-2 4-4v-2l4-2 4-4v-2l6-1h13l5-5v-2h2l1-6-7-8-23-23-6-1-9 2z" fill="#FED561"/>
<path transform="translate(95,422)" d="m0 0h9l5 3 8-1h9l8 7 25 25 1 2v7l-5 7-8 7-46 46-2 1h-7l-6-4v-2l-4-2-8-8v-2l-4-2-3-3v-2l-4-2-5-6-1-7 2-5-1-7-3-7 2-9 21-21h2l2-4 9-9zm1 4-4 3v2l-4 2v2l-4 2-20 20v2h-2l-2 3v6l3 6v9l-1 7 3 5 13 13h2l2 4h2l2 4 6 5h7l7-7v-13l1-5 4-2 17-17v-2l4-2 9-1h7l7-7v-7l-29-29-2-1h-6l-6 2-10-4z" fill="#FDD460"/>
<path transform="translate(462,55)" d="m0 0h9l6 3 7-1h9l8 7 3 2v2h2v2h2v2h2v2h2v2l3 1 7 8 5 5v8l-9 10-40 40h-2l-2 4-8 7h-7l-6-4-3-3v-2l-4-2-21-21-1-8 2-10-3-6v-9l3-5 20-20h2l2-4 8-8zm1 4-7 6v2l-4 2-17 17-4 5-4 4v7l3 5v8l-1 2v7l7 8 6 5 7 8 9 9 6 1 8-7 1-4v-11l2-5 4-2 17-17v-2l9-2h10l7-7 1-5-8-10-8-7-15-15-17 1h-3v-2l-2-1z" fill="#FED561"/>
<path transform="translate(832,1156)" d="m0 0 8 1 4 2 15-1 6 3 1 3 3 1v2l4 2 20 20 2 4v6l-7 9-7 6-5 5-4 5-7 6-5 5-4 5-7 6-13 13-2 1h-8l-10-8-7-8-16-16-1-2 1-10 1-6-3-5-1-6 3-8 5-4 3-4h2v-2h2v-2h2l1-3 5-4 1-2h2l1-3h2v-2h2v-2h2l1-3zm0 4-4 2-5 6-5 4v2h-2l-5 5-1 3h-2v2l-4 2-5 6-4 4-1 5 4 7v8l-1 3v7l29 29 6 1 4-2 5-6v-13l3-5 4-4v-2l4-2 4-4v-2l4-2 4-4v-2l6-1h13l3-3v-2h2l3-5-2-5-7-8-16-16h-2l-2-4-5-2-9 2-6-1-6-3z" fill="#FDD460"/>
<path transform="translate(316,1143)" d="m0 0 5 1 20 7 23 6 20 3 13 1h27l29-3 25-5 8-1 6 5v4l-15 4-29 5-14 1h-36l-18-2-22-4-21-6-16-6-15-7 4-2z" fill="#353534"/>
<path transform="translate(862,427)" d="m0 0 5 2 5 6 12 12 2 1v2h2l6 8v7l-3 5h-2l-1 3-3 3h-2l-2 4-43 43-5 3h-7l-6-4-9-9v-2l-4-2-4-4v-2h-2v-2l-4-2-5-6v-9l1-8-3-7v-8l3-5 8-7 13-13 7-1-2 3h-2l-2 4-12 12h-2l-2 4-4 5 1 7 3 7-1 6-1 9 8 8 6 5 7 8 7 7h8l6-5 1-16 7-8 3-3h2l2-4 11-11 2-1h14l7-6v-8l-4-4v-2l-4-2v-2l-4-2-8-8v-2l-4-2v-2l-4-2-1-2z" fill="#FDD460"/>
<path transform="translate(436,1067)" d="m0 0 101 1 2 2 2 9 7 2v2h-122l1-4z" fill="#CD9D26"/>
<path transform="translate(1021,713)" d="m0 0h7l5 2 4 5 1 2v10l-2 6 1 3v7l-3 6-5 4h-11l-7-6-2-2h-10l-7-5-2-5v-8l3-5 7-4h8l3 1 2-6 5-4z" fill="#ECEBEA"/>
<path transform="translate(288,1021)" d="m0 0h19l13 4 9 6 6 5 7 10 4 8 2 7v7l-11 1-6 2v-4l-3-1-4-4-4-5-4-3-4-5-4-3-4-5-4-3-4-5-4-3-4-5-4-3z" fill="#353534"/>
<path transform="translate(718,847)" d="m0 0 4 2 7 12 12 16 9 16 7 9 10 17 4 5 10 16 6 8 2 5-4-1-12-18-7-11-9-14-7-11-7-10-6-11-10-13-8-13-7 2 7 12 7 11 10 14 7 11 8 14 12 17 14 22-3 1-15-23-14-21-7-12-8-12-9-13-7-11-3-5v-2l-11 6-11 8-10 6-9 6-11 7-14 10-10 6-11 8-11 6-39 26-8 5-13 8-7 5 1 5 11 18 7 10-1 3-4-5-13-19-5-9-5 3h-2l10 17 7 9 2 5h-3l-9-13-7-11-4-7 13-9 18-12 9-5h2v-2l17-11 18-12 10-6 9-5 12-9 10-6 11-8 16-10 18-12 14-9 8-5z" fill="#EE5850"/>
<path transform="translate(1198,789)" d="m0 0 9 1 3 2 17-1 5 3 11 11v2l4 2 12 12 3 4v7l-3 5h-2l-1 3-7 6-5 5-4 5-7 6-5 5-4 5-7 6-14 14-2 1h-8l-8-7-4-4v-6l14 12h5l5-4 2-3v-12l2-6 6-5 5-5 4-5 7-6 1-2 4-1h13l5-4 2-3v-6l-7-8-21-21-4-1-11 2-5-1v-2h-4v-2l-10-2z" fill="#FDD460"/>
<path transform="translate(674,1029)" d="m0 0 3 1 8 11 1 3 6-1h14l-7 11-3 4 3 10 3 9-9-2-10-2-14 11h-1l-1-15-1-5-14-9v-2l14-5h3l4-16z" fill="#F64959"/>
<path transform="translate(643,935)" d="m0 0 5 2 10 6 7-1 11-5 2 1-3 14v5l10 10 1 4-19 1-2 5-7 3h-5l-3-9-10-1-9-2 6-7 7-6z" fill="#F54A59"/>
<path transform="translate(568,1019)" d="m0 0 2 1 5 28 5 22 4 21 9 42 5 24-1 4-7 1-4-13-3-16-4-20-4-18-5-25-4-24-3-9-2-16z" fill="#FBEAD4"/>
<path transform="translate(772,977)" d="m0 0h4l9 39 3 17 3 13 7 38 3 12 2 10 2 8v4l-9 1-11-55-4-16-3-19-5-23-5-24v-4z" fill="#FAE9D4"/>
<path transform="translate(768,975)" d="m0 0h10l3 11 6 26 3 18 3 14 8 41 2 6 2 13 2 6 1 10-12 3-7 1 3-4h2l-8-38-8-37-3-19-6-28-3-15v-4l-24 6-13 2-27 6-14 3-11 2-13 3-14 2-18 4h-3l1-3 16-4 29-5 22-5 25-5 12-3 13-2zm4 2-4 1 1 9 4 19 7 33 2 13 6 27 6 29 2 11 9-1-1-9-2-6-3-16-5-25-5-26-3-13-3-17-5-21-2-8z" fill="#EF5850"/>
<path transform="translate(185,865)" d="m0 0 9 1 6 2-2 1-1 5-2 3h-2l-2 4-4 5-11 18-8 19-4 19-2 20-5-2-6-4v-13l2-15 8-21 9-16 12-16 2-1z" fill="#EFAF0C"/>
<path transform="translate(1049,737)" d="m0 0h7l5 3 4 3 5-2 8 1 5 4 1 2v9l-5 6-5 1-1 7-4 4-2 1h-9l-6-5-2-7 1-4-5-2-4-4-1-8 3-6z" fill="#EDEBEA"/>
<path transform="translate(1198,83)" d="m0 0h10l8 5 5 8v9l-4 8-6 5-6 2-8-1-5-2v-2l-4-2-4-8v-9l5-8 7-4z" fill="#FED561"/>
<path transform="translate(463,83)" d="m0 0h11l6 3v2h2l4 8v10l-4 7-4 4-5 2h-11l-8-6-3-5-1-4v-9l4-7h2v-2z" fill="#FED561"/>
<path transform="translate(95,1184)" d="m0 0h11l6 3 6 9 1 4-2 11-5 6-6 3h-12l-6-4-4-5-2-5v-7l4-9h2v-2z" fill="#FED561"/>
<path transform="translate(95,450)" d="m0 0h11l7 4 4 4 2 5v11l-3 6-7 5-3 1h-10l-8-4-5-9v-10l5-8z" fill="#FED561"/>
<path transform="translate(832,450)" d="m0 0h8l8 4v2h2l3 6v12l-3 6h-2v3l-7 3h-11l-7-4-4-5-2-5v-8l4-8 5-4z" fill="#FDD460"/>
<path transform="translate(831,1184)" d="m0 0h10l9 6 3 5 1 3v10l-6 9-6 3h-11l-8-4-4-6-1-5v-7l4-8z" fill="#FED561"/>
<path transform="translate(1199,817)" d="m0 0h9l8 5 4 5 1 3v10l-4 8-6 4-3 1h-10l-7-4-1-3-3-1-1-3v-14l3-5 3-4z" fill="#FDD460"/>
<path transform="translate(827,1068)" d="m0 0h61l2 15h-72l-1-1 1-7 4-4z" fill="#CD9D26"/>
<path transform="translate(1108,809)" d="m0 0 5 2 1 5-3 23-3 28-2 10-3 32-2 18-1 3-1 14-2 2v-10l10-85 4-35 1-4h-72v314l-1 10h-2l-1 2v-97h2l1-230 1-1z" fill="#FAEAD4"/>
<path transform="translate(617,1059)" d="m0 0 4 2 7 9h17l-6 10-2 3 1 6 3 8-1 3-10-3h-6l-10 8h-2l-1-16-12-8-1-2 14-5 3-8z" fill="#F54A59"/>
<path transform="translate(738,1035)" d="m0 0 5 5 6 8h16l-2 5-5 7 1 8 3 9-7-1-10-2-9 8-3 1-1-16-14-9 3-2 11-4h2z" fill="#F54A58"/>
<path transform="translate(705,918)" d="m0 0 5 2 8 5 6-1 8-4h3l-2 11v6l9 10-2 2-14 2-7 13h-2l-6-14-16-4 5-6 6-5z" fill="#F54C59"/>
<path transform="translate(55,132)" d="m0 0 7 1 5 1 6 6v3l4 1-1 5-4 2-5 1-7 7-2 8-2 2-5-1-10-10v-12l7-8 5-5z" fill="#FCC42E"/>
<path transform="translate(185,1031)" d="m0 0 4 5 10 14 10 13 7 9-2 2-14 4-7-1-1-5h-2l-4-8-1-5z" fill="#CD9D26"/>
<path transform="translate(1058,708)" d="m0 0v3l-2 4 6-1 9-1 1-3 2 2-3 8-5 1-4 7v11 3l-3-3-3-1h-7l-5 3-2 5v8l-2-2-1-4-3 3v-10l-1-5 2-4 1-10 6-1 5-3 1-3-2-1 8-4z" fill="#FCC734"/>
<path transform="translate(1020,661)" d="m0 0 4 2 6 12 2 5-5 8-1 10 4 9 7 5 13 2 2 1-4 5-6 3-5-1-4-6-5-2-10-1-1-1v-16l-2-9 4-7v-10l-1-6z" fill="#F2B412"/>
<path transform="translate(279,946)" d="m0 0h9l6 4 3 5v9l-4 6-7 3-8-1-6-5-2-5 1-9 4-5z" fill="#ECECEC"/>
<path transform="translate(337,1068)" d="m0 0h11v13l-2 2v-3h-2l1 4-7-1h-90l-1-8 20 4 10 1h13l22-3 18-6h3l1-2z" fill="#CD9D26"/>
<path transform="translate(164,986)" d="m0 0 2 1 5 16 9 19 5 7 1 9-1 6-4-2-3-5v-2h-2l-5-9-5-7-4-8-3-7v-5h-2l-1-4 4-6z" fill="#EEAF0C"/>
<path transform="translate(197,748)" d="m0 0h1v45l-11 6h-2l-1-4 1-35z" fill="#CD9D25"/>
<path transform="translate(344,1080)" d="m0 0h2l1 4-3 9-6 10-4 5h-2v2l-10 7-12 4h-18l4-2 9-3 10-5 5-5h2l2-4 3-3 4-8 2-3 1-5 9-1h1z" fill="#F2B310"/>
<path transform="translate(1224,430)" d="m0 0h6l7 6v6l9 3 3 3-3 3-9-3-5 1-1 4 5 5-1 4h-4l-6-6v-2l-4-2-8-8v-3l4-4h2l2-4 3-1z" fill="#FDD460"/>
<path transform="translate(1219,1157)" d="m0 0h6l6 7 2 5 10 5-3 4-5-1-4-2-5 1-1 4 5 5-1 4-3 1v-2l-4-2-2-4h-2v-2l-4-2-7-7 1-4 6-5z" fill="#FDD460"/>
<path transform="translate(857,63)" d="m0 0h7l4 4 2 5v2l10 5v3l-5 1-5-2h-5l-2 4 5 5v4l-4 1-17-17v-2h-2v-2h2l2-4h2l2-4z" fill="#FDD460"/>
<path transform="translate(123,62)" d="m0 0h5l5 4 2 5 1 3 9 4v3l-1 2-6-1-7-2-2 2 1 5 4 3-1 4h-4l-13-13-2-1v-2h-2l-1-5 10-10z" fill="#FDD460"/>
<path transform="translate(491,1163)" d="m0 0h5l6 5 1 7 6 2 6 3-3 4h-5v-2l-8-1-2 2 1 5 4 4-1 3-3 1-19-19 2-5 5-5h2v-2z" fill="#FDD460"/>
<path transform="translate(123,796)" d="m0 0h7l1 3 3 1 2 4v4l6 2 5 3v2l-5 2-6-3h-5l-2 5 6 7-3 3h-2v-2h-2l-7-8-10-10 1-3 5-4 1-2h2v-2z" fill="#FDD460"/>
<path transform="translate(1067,719)" d="m0 0 3 1 2 11 1 6 10 5 8 2 2 10 3 8-14 1 1-6v-9l-5-5-8-1-6 2-3-5v-11l4-7z" fill="#F0B210"/>
<path transform="translate(821,962)" d="m0 0h48l1 4-1 4-3 1-44-1 1-3-2-1v-3z" fill="#ECECEC"/>
<path transform="translate(137,843)" d="m0 0 1 3-3 3-3 6-3 1-2 5-3 4-2 5-5 8 1 5-3 3h-2l-3 10-6 19-2 8-2 13v18l-1 7 1 4v19l2 13 1 1 1 9 3 6 2 7-1 4-4-10-2-6-5-30-1-10v-16l3-26 5-21 9-24 12-22 8-11z" fill="#FBEAD4"/>
<path transform="translate(769,987)" d="m0 0 2 4 3 15 7 33 2 13 6 27 6 29 1 4v7l8-1 2 3-17 3 3-4h2l-8-38-8-37-3-19-6-28-1-9z" fill="#EE5950"/>
<path transform="translate(788,1121)" d="m0 0 3 1-5 3-27 6-18 3-30 7-23 5-16 2-5 1 1-3 16-4 24-4 44-10z" fill="#F05453"/>
<path transform="translate(839,82)" d="m0 0 7 1 3 3v5l7 1 3 4v6l-7 8-5 4-3-3 8-8 1-6h-6l-6 5-4-2 2-4 4-4v-4l-5 1-6 7-5-1v-3h2l2-4z" fill="#FDD460"/>
<path transform="translate(1201,1176)" d="m0 0h5l5 5 1 3 5 3 4 4-1 7-5 6-5 4-4-1 2-4 6-7-1-5-5-1v2l-7 5-2-4 5-6 1-5-6 2-7 7-3-2 1-4z" fill="#FED561"/>
<path transform="translate(104,81)" d="m0 0 7 1 3 3 1 5 5 1 4 5 1 4-4 6-3 3h-2l-1 3-4 1-1-4 5-5h2l1-8-7 1-5 4-3-1 1-4 3-1 1-8-7 3-5 6-4-2 2-4 7-7z" fill="#FED561"/>
<path transform="translate(475,1182)" d="m0 0 5 2 3 4v3l6 1v2h2l2 5-1 5-11 11-3-2v-3h2v-2h2v-2l4-3-1-5-5-1-7 6-2-4 3-4h2v-6l-5 1-4 2-1 3h-2l-1 2-2-1v-4l5-5 6-4z" fill="#FED561"/>
<path transform="translate(718,847)" d="m0 0 4 2 7 12 12 16 9 16 7 9 10 17 4 5 10 16 6 8 2 5-4-1-12-18-7-11-9-14-7-11-7-10-6-11-10-13-8-13-6 2 2-4z" fill="#EC5C4E"/>
<path transform="translate(1206,449)" d="m0 0 7 1 4 4 1 3 7 4 2 5-1 5-5 5h-2l-2 4-4 1-1-4 5-5h2l1-7-5-1-8 6v-2h-2l1-4 5-4-1-4-6 1-6 7-3-1 1-4 2-3h2l2-4z" fill="#FED561"/>
<path transform="translate(164,983)" d="m0 0h2l-2 4-6 5h-2l-2 4-7 12-2 6-1 18 2 12 7 13 5 6 10 8 8 4 9 2h20l3 1v2l-26-1-12-3-3-3-4-2v-2l-4-2-3-1-2-5-4-4-5-9-2-4-2-8-1-1-1-7v-9l3-3 4-13 3-6 3-3 3-7 7-1v-2z" fill="#FBEAD4"/>
<path transform="translate(316,1143)" d="m0 0 5 1 20 7 14 4-3 3-2 1 1 3-8-1-17-6-18-8-2-2z" fill="#383836"/>
<path transform="translate(106,815)" d="m0 0 6 1 4 7 6 3 3 4v5l-9 10-4 2-1-4 7-7v-5l-6-1-5 5h-3l-1-3 6-7v-4l-7 1v2h-2l-2 4-3 2-2-4 4-5 6-5z" fill="#FED561"/>
<path transform="translate(454,1200)" d="m0 0h5l5 4 1 7-3 7v6l5-1v-2h2v-2h2l2-4 4 4-13 13-4-2v-2h-2l-3-6 1-6 3-5-1-5-4 1-4 4h-2v2l-4-1 1-4 7-7z" fill="#FED561"/>
<path transform="translate(87,99)" d="m0 0 7 2 3 4-1 7-2 5v5l4-1 6-6 4 1-1 4-6 5-5 6-3-1v-2h-2l-4-4v-7l3-5v-7l-5 1-6 7h-2l-2-4 8-8z" fill="#FDD460"/>
<path transform="translate(821,100)" d="m0 0 7 1 4 5-1 6-3 6 1 4h4l7-7 3 2-2 4-5 6-5 4-4-2-4-4-1-7 3-7-1-5-6 1v2h-2l-2 4-4-2 2-4 7-6z" fill="#FED561"/>
<path transform="translate(87,833)" d="m0 0 6 1 4 4 1 3-3 8-1 7h4l7-8h2v2h2l-2 4-10 10-4-1-5-6-1-3 2-6 2-4-1-5-5 2-5 5-4-2 4-6z" fill="#FDD460"/>
<path transform="translate(884,809)" d="m0 0 5 1 2 6 1 16 1 1 2 23 3 28 2 5 1 22 3 12 2 29 3 16v20h-1l-15-128-5-44v-4h-11v-1z" fill="#FBEAD4"/>
<path transform="translate(1181,1195)" d="m0 0h7l5 5-1 9-2 3 1 5h3l7-7 4 1-2 4-10 10-4-1-5-5-1-5 2-6h2v-7l-3-1-8 7-4-1 2-5 4-2v-2z" fill="#FED561"/>
<path transform="translate(1191,467)" d="m0 0 6 3 3 5-4 10 1 5 3 1 1-3 6-5 3 1-1 4-4 2v2h-2l-2 4-2 2-4-1-5-6-1-4 4-10-1-4-4 1-6 6-4-1v-3h2v-2h2v-2h2l1-3z" fill="#FED561"/>
<path transform="translate(348,1068)" d="m0 0 3 1-2 14-3 11-5 7-2 4h-2l-2 4-9 7-10 5h-4v2l-2 1h-22l-2 1-3-2v-2l-6-1-9-4v-2l-4-2-6-5-3-5-3-2-2-6-5-12v-6l2-1 4 15 8 14 7 7 9 5 6 3 8 2h16l11-3 7-3 7-5h2v-2l5-5 6-10 4-12z" fill="#FBEAD4"/>
<path transform="translate(510,1143)" d="m0 0 4 1-1 4-7 7 2 4h4l7-7 1 2h2l-2 5-5 5v3l5 5v4h-4l-16-16-1-5 9-10z" fill="#FED561"/>
<path transform="translate(1239,1136)" d="m0 0h2v2h2l-2 4-7 7 1 5 5-1 7-7 3 2-1 4-3 3h-2v2h-2l3 5 1 3h2l1 4-4 2v-2l-4-2-12-12-2-5 5-7h2v-2z" fill="#FED561"/>
<path transform="translate(1038,747)" d="m0 0 2 1 1 6h2l4 4 4 2 1 11-5-4-7-4h-10l-6 1v2l-4-1-1-4-4-2-3-3 3-1 3 2h11l5-4 1-2h2z" fill="#F1B517"/>
<path transform="translate(979,703)" d="m0 0 5 1 5 7 6 4 11 1v2l-5 4-7 3-9-1-2-2-3-9-2-5-6-2v-2z" fill="#F1B210"/>
<path transform="translate(142,776)" d="m0 0 5 1-2 4-5 5-2 4 2 2 5-1 6-6 4 2-1 4-5 5-3 1 7 8-1 4h-3l-8-7-7-8-2-2v-5l9-9z" fill="#FDD460"/>
<path transform="translate(1245,410)" d="m0 0h3l1 3-8 8 1 5h4l2-3h2v-2l4-2 2 2v3l-7 6 1 4 6 7-3 3-4-2-5-6-2-1v-2l-4-2-1-3h-2l-2-3 1-4 4-5h2v-2z" fill="#FED561"/>
<path transform="translate(143,41)" d="m0 0 1 2h2l-2 5-3 1-2 4-1 4 2 2h3l1-2h2v-2h2v-2l4-2v2h2l-2 4-5 5 1 4 5 7-2 3-4-2-5-5-7-6v-2h-2l-2-3 1-6z" fill="#FED561"/>
<path transform="translate(877,42)" d="m0 0 4 2-2 4-6 6 1 5h4l3-4h2v-2l4-1 2 4-8 7 2 5 5 4-2 4-4-1-15-15-2-4 7-9z" fill="#FED561"/>
<path transform="translate(1017,699)" d="m0 0h1v13l3 2-6 3-4 7h-11l-7 4-2 4-1 8h-1v-7h-3v2h-2v5l-3-4 1-6 2-7 10 1 9-3 1-3h2v-2h-11l-2-2h12l7-2 2-4z" fill="#FCC93D"/>
<path transform="translate(715,860)" d="m0 0 4 5 7 11 10 14 7 11 8 14 12 17 14 22-3 1-15-23-14-21-7-12-8-12-9-13-7-12z" fill="#ED5B4E"/>
<path transform="translate(714,849)" d="m0 0m-2 1 2 1-1 4 2 4v3h-2l-2-6-11 6-11 8-10 6-9 6-11 7-14 10-5 3-3-1 4-4 24-16 11-7 18-12 14-9z" fill="#F05453"/>
<path transform="translate(1167,752)" d="m0 0 3 1 5 8 1 7-2 9-1 4 3 5 1 4 23 1 4 2 2 5v7l-6 7h-44v-2l3-1 13 1h27v-2h-7l1-2h7 2l2-5-3-7-11-1-13 1-3-2-3-9v-6l2-5v-8z" fill="#FBEAD4"/>
<path transform="translate(1145,890)" d="m0 0h1l-1 14-10 85-7 61-2-4 2-22 2-11 2-27 2-5 3-29 2-21v-7l2-8 2-20z" fill="#FBEAD4"/>
<path transform="translate(923,757)" d="m0 0 5 2 2 1h13l4-1v4h-8l-8 3-5 5-3 7v9l1 4h-3l-3-8-2-2 1-5 1-3v-13z" fill="#45433C"/>
<path transform="translate(956,680)" d="m0 0h2l1 11 3 6 6 5 2 2-13 1-1 1h-5l-2-3v-15h2l2-5 3-1z" fill="#F1B313"/>
<path transform="translate(553,954)" d="m0 0m-1 1m-2 1 2 1-1 3-5 3 1 5 11 18 7 10-1 3-4-5-13-19-5-9-5 3h-2l10 17 7 9 2 5h-3l-9-13-7-11-4-7 13-9z" fill="#EE594F"/>
<path transform="translate(110,1027)" d="m0 0 2 1 2 5 3 3 2 7 4 8 7 11 5 6 5 8 4 4 7 8 4 5 10 7 4 4v2l4 1 1 3 7 2 4 4 3 1v2l5 2-2 1-10-6-10-7-14-12-5-4-7-8-9-10-7-10-11-18-6-12-2-5z" fill="#FBEAD4"/>
<path transform="translate(706,988)" d="m0 0 3 1 1 2-22 5-11 2-13 3-14 2-18 4h-3l1-3 16-4 29-5 22-5z" fill="#ED5B4E"/>
<path transform="translate(1081,1075)" d="m0 0h1l-1 23-3 22-1 16-1 6 2-1h36l4-20h1l-1 15-2 7h-42v-9l6-54z" fill="#FBEAD4"/>
<path transform="translate(985,752)" d="m0 0h2l-1 5 4 2-4 5-3 8h-15l-8 4-5-8-8-5 1-5 5 5 6 4 10 1 9-3 5-6z" fill="#F9C537"/>
<path transform="translate(572,1084)" d="m0 0h2l5 26 3 12 7 35 2 7h-4l-4-17-6-31-5-23z" fill="#F05453"/>
<path transform="translate(548,1081)" d="m0 0 5 3 3 6v9l-4 4-2-2-2-7-4-4-8-1-1-1v-5h13z" fill="#F2B311"/>
<path transform="translate(177,1113)" d="m0 0 9 5 16 9 17 7 8 3 3 1v2l-9-1-23-8-16-8 1-5-6-3z" fill="#F4B81C"/>
<path transform="translate(304,1145)" d="m0 0 6 2 21 9 15 5 16 4-1 2-9-1-10-3-17-4-12-5-13-6z" fill="#EDB013"/>
<path transform="translate(1076,739)" d="m0 0 11 4 4 1 2 10 3 8-14 1 1-6v-9l-5-5-8-1-3-1z" fill="#F2B412"/>
<path transform="translate(996,1046)" d="m0 0 3 1v93l40 1v2h-42l-1-6z" fill="#FAEAD4"/>
<path transform="translate(550,1126)" d="m0 0 8 1 5 5 2 6-2 7-3 3-2-8-2-4-12-3v-2z" fill="#F1B009"/>
<path transform="translate(185,865)" d="m0 0 9 1 6 2-2 1-1 5-2 3h-2l-2 4-4 5-2 2-1-3 1-5z" fill="#CD9D26"/>
<path transform="translate(946,947)" d="m0 0 2 1 1 14 10 86v8h-1l-3-16-3-32-1-1-2-22-2-12-1-13z" fill="#FBEAD4"/>
<path transform="translate(399,1104)" d="m0 0 2 1-5 5-9 6-3 1v2l-16 8-20 9-26 7h-3l1-2 9-2 16-5 2-2 9-2 7-4 5-2 9-5 3-5h6l10-8h3z" fill="#FBEAD4"/>
<path transform="translate(198,792)" d="m0 0h2l-2 4-9 4-9 7-9 5-2 3h-2l-2 5-9 5-5 5-3 6-6 4-4 3 2-4 2-3h2l2-4 16-16 11-8 14-10z" fill="#FAEAD4"/>
<path transform="translate(422,490)" d="m0 0 3 1-4 2-63 11-11 2-5-1 2-2 30-5 16-2 26-5z" fill="#FBE8CD"/>
<path transform="translate(559,1022)" d="m0 0h2l2 7 2 11 2 6 4 24 3 14-3 1-4-17-5-25-3-16z" fill="#EE5A4F"/>
<path transform="translate(588,459)" d="m0 0 5 1 2 2-7 2-47 8-24 4h-5v-2l15-2 7-2 18-3 11-1 5-2 18-2z" fill="#FBEAD4"/>
<path transform="translate(872,337)" d="m0 0 2 2-16 3-10 2v2h-16l-16 3-9 2-11 2h-4v-2l16-3 56-10z" fill="#FBEAD4"/>
<path transform="translate(1167,1209)" d="m0 0 7 6 11 11v2l3 1v2l-4 2-16-16-5-2 2-5z" fill="#FED561"/>
<path transform="translate(70,848)" d="m0 0h3v2h2l7 8 7 6 3 5-4 2-2-1v-2l-3-1v-2l-4-2-7-7-5-2 1-4h2z" fill="#FDD460"/>
<path transform="translate(758,431)" d="m0 0 5 1-4 2-63 11-13 2v-3l5-1 15-2 9-2 18-3 8-2 18-2z" fill="#FBE9D1"/>
<path transform="translate(805,115)" d="m0 0 5 3v2h2v2l4 2 9 9 1 3-4 2-9-9-7-6-5-3 1-3z" fill="#FED561"/>
<path transform="translate(168,863)" d="m0 0h22l9 3v2l-15-3-16 1-12 5-9 6-3 1v2h-2l-2 4-7 12-2-2v-4l3-1 7-10h2l1-3 8-6 3-3z" fill="#FBEAD4"/>
<path transform="translate(1172,483)" d="m0 0 4 1 9 9v2l4 2 4 4-1 4-4-1-14-14-5-2 2-4z" fill="#FED561"/>
<path transform="translate(69,115)" d="m0 0 4 1 4 3v2h2v2h2v2h2v2l3 1 3 3v2h2l-2 4-4-1v-2h-2v-2h-2l-9-9v-2l-5-1v-3z" fill="#FED561"/>
<path transform="translate(924,1119)" d="m0 0 2 2 2 19 38 1v-13l2-2 1 8v9h-42l-2-7-1-8z" fill="#FBEAD4"/>
<path transform="translate(437,1216)" d="m0 0 5 1 1 3h2v2l3 1 6 7 3 2v2h2l-1 4h-3l-12-12-3-2v-2l-3 1-2-2 1-4z" fill="#FED561"/>
<path transform="translate(935,850)" d="m0 0h1l8 69 2 16v7h-1l-2-10-1-10-1-2-3-34-2-15-1-3z" fill="#FAEAD4"/>
<path transform="translate(361,426)" d="m0 0 3 1v1l-20 4-16 2-2 2h-10l-2 1-9 1-11 3-12 1v-2l44-8 25-4z" fill="#FBEAD4"/>
<path transform="translate(701,367)" d="m0 0 3 2-9 1-4 3h-3v-2l-5 2-11 1-1 1-20 3-5 1-11 1-10 2-4-1 20-4 47-8z" fill="#FBEAD4"/>
<path transform="translate(1155,510)" d="m0 0h6l4 4v6l-4 3-7-1-2-2v-8z" fill="#FDD460"/>
<path transform="translate(1150,1237)" d="m0 0 7 1 3 5-2 5-2 2h-6l-4-3v-6z" fill="#FED561"/>
<path transform="translate(54,876)" d="m0 0 7 1 3 5-2 6-7 1-5-4 1-7z" fill="#FED561"/>
<path transform="translate(420,509)" d="m0 0h6l4 4-1 7-5 2-5-1-2-1-1-7z" fill="#FED561"/>
<path transform="translate(791,142)" d="m0 0 6 3v8l-3 3-7-1-3-3v-5l4-4z" fill="#FED561"/>
<path transform="translate(54,142)" d="m0 0h5l4 4-1 7-2 2h-6l-4-3-1-5z" fill="#FED561"/>
<path transform="translate(1061,704)" d="m0 0 11 1h5l-3 6h-2l-1 2-9 2h-6l1-4z" fill="#F1B414"/>
<path transform="translate(423,1243)" d="m0 0 6 1 2 3v6l-3 3h-7l-3-3v-6l2-3z" fill="#FED561"/>
<path transform="translate(915,1040)" d="m0 0 2 1 3 28 1 6v13h2l1 16 1 14h-2l-8-69z" fill="#FBEAD4"/>
<path transform="translate(786,1012)" d="m0 0h1l3 18 3 14 4 19v3h-3l-4-20-5-23v-8z" fill="#EE5A4F"/>
<path transform="translate(788,1121)" d="m0 0 3 1-5 3-27 6-7 1h-8l3-3 36-7z" fill="#F25055"/>
<path transform="translate(811,148)" d="m0 0v3l-19 19-5 1-1-2 6-2 1-7 5-5 5-4 7-2z" fill="#FDD460"/>
<path transform="translate(1052,771)" d="m0 0 6 4h9l6-3-1 10h-17z" fill="#F8C333"/>
<path transform="translate(337,1068)" d="m0 0h11v13l-2 2v-3l-4-1-8-8z" fill="#D0A12B"/>
<path transform="translate(443,1243)" d="m0 0 3 1 1 5-20 20-1-4 2-6 5-6 5-2 5-1 1-5z" fill="#FED561"/>
<path transform="translate(1171,1244)" d="m0 0 2 1-20 20-7-1-1-3h2v2h5l2-2 2-7 2-3h2l1-3 4-3z" fill="#FDD460"/>
<path transform="translate(77,144)" d="m0 0 2 1-1 4-16 16h-2l-1 3-2-1 2-8 8-8 8-2z" fill="#FDD45F"/>
<path transform="translate(130,928)" d="m0 0 2 3 6 12 3 5 3 2v2l4 2 7 5 8 4v2l-5 1-8-7-9-7-4-4-7-14z" fill="#FBE9D3"/>
<path transform="translate(454,486)" d="m0 0h6l1 4-2 1v4l2 2-5 2-7-7-7-2 1-2z" fill="#D5A427"/>
<path transform="translate(150,1056)" d="m0 0 4 2 4 5 10 8 8 4 9 2h20l3 1v2l-26-1-12-3-3-3-4-2v-2l-4-2-3-1-2-5-4-4z" fill="#FAEAD4"/>
<path transform="translate(539,963)" d="m0 0 2 1-4 5h-2l10 17 7 9 2 5h-3l-9-13-7-11-4-7z" fill="#ED5B4E"/>
<path transform="translate(1178,516)" d="m0 0v3l-11 11h-2v2h-2v2h-2l-1 3-2-1 3-8 7-8 3-2z" fill="#FED561"/>
<path transform="translate(1096,946)" d="m0 0h1v16l-2 14v7l-2 12-2 18-2 1v-9z" fill="#FBEAD4"/>
<path transform="translate(69,884)" d="m0 0h5v3l-17 17-4-1 5-3 2-8 7-7z" fill="#FED561"/>
<path transform="translate(1021,713)" d="m0 0h7l5 2 4 5 1 2v10l-2 6 1 3v7l-3 6-3 3h-2v-2l4-3 2-10-1-2v-6l2-3v-8l-5-7h-12l-5 6-1 2h-2l2-6 5-4z" fill="#FBEAD4"/>
<path transform="translate(918,404)" d="m0 0h6l-4 2-36 6-16 3h-5l1-2 20-4 22-4z" fill="#FBE8CD"/>
<path transform="translate(1049,737)" d="m0 0h7l5 3 4 3 5-2 8 1 5 4 1 2v9l-2 2v-8l-3-6-5-2-6 1-7 1-3-5h-4v-2l-8 3-3 6 1 9-2-2-1-8 3-6z" fill="#FBEAD4"/>
<path transform="translate(582,1078)" d="m0 0h2l9 45h-3l-8-35z" fill="#EF5751"/>
<path transform="translate(984,723)" d="m0 0 10 2-2 4-2 11h-1v-7h-3v2h-2v5l-3-4 1-6z" fill="#FDC735"/>
<path transform="translate(443,514)" d="m0 0v3l-9 9h-2l-2 5-4 1-2-2 3-6 8-7 7-2z" fill="#FDD35F"/>
<path transform="translate(256,1140)" d="m0 0h7l-1 3 7 1h39l-4 2h-40l-23-4v-1h10l5 1z" fill="#FBEAD4"/>
<path transform="translate(747,980)" d="m0 0m-3 1h3v2l-5 2-13 2-15 3h-6l2-3 20-4z" fill="#F05552"/>
<path transform="translate(1014,755)" d="m0 0 4 2h11l3-1v5l3 1-7 2h-4v2l-4-1-1-4-4-2-3-3z" fill="#FCCA41"/>
<path transform="translate(668,879)" d="m0 0 2 1-5 5-17 12-8 5-3-1 4-4 24-16z" fill="#F25055"/>
<path transform="translate(958,688)" d="m0 0 3 4 1 3 5 5 5 2 12-1 2 6-3-3h-11v2l6 2 2 5h-2l-4-4-5-3h-11l-4 1 3-3 11-1-8-7-2-5z" fill="#FBE9D0"/>
<path transform="translate(510,400)" d="m0 0 3 1-5 2-31 5v1l-12 1-12 3-1-2 12-3 29-5z" fill="#FBEAD4"/>
<path transform="translate(715,860)" d="m0 0 4 5 7 11 10 14 2 5h-3l-7-11-7-10-7-12z" fill="#EB5F4C"/>
<path transform="translate(434,1068)" d="m0 0 2 1-9 11-10 11-5 5-4 2-1 3-4 3-2-1 6-7 4-1 1-4 5-3 2-4 8-7 1-4z" fill="#FBEAD4"/>
<path transform="translate(743,1130)" d="m0 0 2 1v2l-16 4-20 4 1-3 16-4z" fill="#EE5850"/>
<path transform="translate(768,975)" d="m0 0h6l-2 3h-4l1 4v7h-2l-1-10-12 3-7 1 1-3 16-4z" fill="#EF5751"/>
<path transform="translate(1220,1162)" d="m0 0 4 1 2 3-1 4-6 5-5-4 1-4z" fill="#FCC52F"/>
<path transform="translate(769,987)" d="m0 0 2 4 3 15 4 19-3 1-6-28-1-9z" fill="#ED5B4E"/>
<path transform="translate(124,801)" d="m0 0 4 1 2 2-1 5-4 4-4-1-3-4z" fill="#FCC52F"/>
<path transform="translate(706,988)" d="m0 0 3 1 1 2-22 5-10 1 1-3z" fill="#ED5C4E"/>
<path transform="translate(164,983)" d="m0 0h2l-2 4-6 5h-2l-2 4-7 12h-2l1-5 3-6 3-3 3-7 7-1v-2z" fill="#FBE9D1"/>
<path transform="translate(491,1169)" d="m0 0h5l2 5-5 6-5-1v-2l-3-1z" fill="#FCC52F"/>
<path transform="translate(543,1113)" d="m0 0h4l1 5v9l-2 2h-3l-2-9v-6z" fill="#F1B009"/>
<path transform="translate(1225,436)" d="m0 0h5l2 3-1 4-4 4-4-1-3-3 2-4z" fill="#FCC52E"/>
<path transform="translate(420,498)" d="m0 0 13 1 1 4-18 2 1-5z" fill="#CD9D26"/>
<path transform="translate(858,68)" d="m0 0 5 1 1 6-5 5-4-1-2-3 1-4h2z" fill="#FCC42D"/>
<path transform="translate(193,1122)" d="m0 0 4 1 10 5 6 2 8 3v2h7l13 5-4 1-17-5-11-5-16-8z" fill="#FBEAD4"/>
<path transform="translate(576,1045)" d="m0 0h1l7 33h-2l-1 2-5-22-2-12z" fill="#EC5E4D"/>
<path transform="translate(948,758)" d="m0 0 5 5 6 4 5 1v2l2 1-5 5-4-5-5-5-5-3z" fill="#F2BD31"/>
<path transform="translate(961,1080)" d="m0 0 2 3 4 34v8l-2 2-1-12-1-3-1-19-1-5z" fill="#FBEAD4"/>
<path transform="translate(1082,759)" d="m0 0 1 2-1 2 13-2 1-2 4 4v2l-4-1h-10l-8 4-5 5-1-2 2-7 6-3z" fill="#FDCC44"/>
<path transform="translate(124,67)" d="m0 0 4 1 1 6-5 5h-3l-2-6 2-4z" fill="#FBC42C"/>
<path transform="translate(1100,764)" d="m0 0 4 1 13 1-2 5-4 4-3-1-5-7z" fill="#F4B717"/>
<path transform="translate(637,899)" d="m0 0 2 1-1 3-14 10-12 6 2-5 8-4 13-9z" fill="#EC5D4D"/>
<path transform="translate(1027,670)" d="m0 0 3 1 4 7-2 5-4 6v14h2l3 5 4 4-5-2-5-6-2-6 1-10 5-8-2-5z" fill="#FBEAD4"/>
<path transform="translate(1014,662)" d="m0 0 5 5 1 3v10l-4 8 2 11-3 9-3 4-2-1 5-8v-10l-1-8 4-7v-7l-3-6z" fill="#FBEAD4"/>
<path transform="translate(628 1e3)" d="m0 0 2 1-2 3-20 4-6 1 1-3 8-3z" fill="#F25154"/>
<path transform="translate(833,422)" d="m0 0 6 1 4 3-2 3-9-2-5 2-3-1 2-4z" fill="#FDC630"/>
<path transform="translate(538,469)" d="m0 0h8l1 2-30 5h-5v-2l15-2 7-2z" fill="#FBE8CA"/>
<path transform="translate(198,792)" d="m0 0h2l-2 4-9 4-9 7-7 4-2-1 9-7 11-7z" fill="#FBEAD4"/>
<path transform="translate(776,1025)" d="m0 0h2l3 14 1 15h-2l-2-9-2-14z" fill="#EF5751"/>
<path transform="translate(1086,763)" d="m0 0h10l8 4 5 7 4-2 5-4 5-1-4 2v2l-6 4-1 2-5-1-4-7-8-4-9-1z" fill="#FBE9D2"/>
<path transform="translate(984,752)" d="m0 0h1l-1 7-6 7-9 3-10-1-6-4-2-3 5 2 4 3 8 1 5-1 1-2 5-2 4-6z" fill="#FBEAD4"/>
<path transform="translate(980,713)" d="m0 0 2 1 2 8-1 8-1 6 4 9v7h-1l-2-8-4-8 2-9v-7l-1-4z" fill="#FBEAD4"/>
<path transform="translate(758,431)" d="m0 0 5 1-4 2-31 5v-2l10-3 18-2z" fill="#FBE8C9"/>
<path transform="translate(760,932)" d="m0 0h3l14 22-3 1-14-22z" fill="#ED5B4E"/>
<path transform="translate(275,1025)" d="m0 0 3 1-5 5-5 6-4 2-2-4 7-6z" fill="#3B3B3A"/>
<path transform="translate(48,136)" d="m0 0 1 2-7 8v12l10 10h-3l-9-9-1-13 2-3h2l2-4h2z" fill="#FDD35A"/>
<path transform="translate(689,866)" d="m0 0m-2 1 2 1v2l-10 6-9 6-1-2 4-4 10-7z" fill="#EE5850"/>
<path transform="translate(1189,812)" d="m0 0h7l1 5-5 3-4 4z" fill="#EDB114"/>
<path transform="translate(1040,644)" d="m0 0h9l6 2-4 1h-11l-6 3-5 5-2 8h-1l1-9 8-8z" fill="#FBEAD4"/>
<path transform="translate(1117,704)" d="m0 0h11l9 5v3l-2-1v-2l-7-1-1-2h-9l-10 7h-4l5-4z" fill="#FBEAD4"/>
<path transform="translate(1019,680)" d="m0 0 2 4v3h2v3l-3 2-1 4h-2l-2-9z" fill="#FDC93B"/>
<path transform="translate(782,1052)" d="m0 0 2 4 4 20h-3l-4-18z" fill="#EB5F4C"/>
<path transform="translate(572,1084)" d="m0 0h2l4 23-3 1-3-15z" fill="#EF5651"/>
<path transform="translate(1125,1051)" d="m0 0h2l-1 17-2 16h-1v-18z" fill="#FBEAD4"/>
<path transform="translate(718,847)" d="m0 0 4 2 7 12-3 1-7-11-6 2 2-4z" fill="#EE594F"/>
<path transform="translate(131,896)" d="m0 0 1 4-2 9v19l-2-3-1-4v-10l1-9z" fill="#FBEAD4"/>
<path transform="translate(998,754)" d="m0 0h10l8 5 3 2 2 4 3 2-5 1-3-6-5-4-4-2h-7l-8 2 3-3z" fill="#FBE9D1"/>
<path transform="translate(591,1123)" d="m0 0h2l5 21-3 2-4-18z" fill="#EE5850"/>
<path transform="translate(998,657)" d="m0 0h8l8 3-1 2-8-3-9 1-6 5-3 7h-5l4-4 3-5 6-5z" fill="#FBEAD4"/>
<path transform="translate(209,1133)" d="m0 0h7l11 4 3 1v2l-9-1-11-4z" fill="#F4B91F"/>
<path transform="translate(1052,771)" d="m0 0 7 5 5 1v2l-5 3h-4z" fill="#F2B924"/>
<path transform="translate(559,1022)" d="m0 0h2l2 7 2 13-3 1-3-16z" fill="#ED5B4E"/>
<path transform="translate(1088,704)" d="m0 0 8 1 8 5-1 2-6-4h-6-3v-2l-7 3-4 1 4-4z" fill="#FBEAD4"/>
<path transform="translate(571,1025)" d="m0 0h2l3 15v7l-2-1-3-15z" fill="#F05552"/>
<path transform="translate(613,915)" d="m0 0m-2 1 2 1-5 5-10 7v-3l5-5z" fill="#F15254"/>
<path transform="translate(1049,768)" d="m0 0 4 5 2 9 4-1h8l5 1v1l-20 1v-8l-3-5z" fill="#FBEAD4"/>
<path transform="translate(1153,501)" d="m0 0h2l-2 4-9 9 1 14h-2l-1-9-1-4 1-3 8-7z" fill="#FDD156"/>
<path transform="translate(422,490)" d="m0 0 3 1-4 2-17 3h-5l2-2 15-3z" fill="#FAE9CF"/>
<path transform="translate(582,1078)" d="m0 0h2l3 16v5l-3-3-2-8z" fill="#F25155"/>
<path transform="translate(246,1075)" d="m0 0 2 4 4 13 1 4-4-3-4-11v-6z" fill="#FBE9D1"/>
<path transform="translate(675,995)" d="m0 0h3l-1 3-8 2h-9l1-2z" fill="#F25154"/>
<path transform="translate(405,956)" d="m0 0 9 3 2 3h-11l-1-5z" fill="#41403C"/>
<path transform="translate(1018,759)" d="m0 0h9l-3 7-4-1z" fill="#F2B413"/>
<path transform="translate(1083,764)" d="m0 0 3 1-6 4h-2l-1 5-1 2h-2l-1 6h-1l1-9 5-6z" fill="#FBEAD4"/>
<path transform="translate(791,1050)" d="m0 0 3 1 3 12v3h-3l-3-13z" fill="#EC5C4D"/>
<path transform="translate(599,924)" d="m0 0m-2 1 2 1-5 6-9 5 2-5z" fill="#EB5E4C"/>
<path transform="translate(588,459)" d="m0 0 5 1 2 2-7 2-13 2 1-3 10-1z" fill="#FAE8C9"/>
<path transform="translate(261,1040)" d="m0 0 2 1-8 8-2 3h-2l2-6 4-5h3z" fill="#403F3B"/>
<path transform="translate(959,768)" d="m0 0h5v2l2 1-5 5-3-4z" fill="#F3B719"/>
<path transform="translate(721,1135)" d="m0 0 3 1-1 2-14 3 1-3z" fill="#EC5C4D"/>
<path transform="translate(261,1036)" d="m0 0 3 1 1 3-5 2h-3l2-4z" fill="#363636"/>
<path transform="translate(586,933)" d="m0 0m-2 1 2 1-5 5-7 4-1-3z" fill="#F44C57"/>
<path transform="translate(992,743)" d="m0 0 5 3 3 2 8 1v-2l4 2 2 3h-3l-2-2h-10l-7-5z" fill="#FBE9D0"/>
<path transform="translate(879,410)" d="m0 0h4v2l-15 3h-5l1-2z" fill="#FBE9D0"/>
<path transform="translate(547,1112)" d="m0 0h1l2 9v4l9 1 1 2-10-1h-3z" fill="#FDCE4A"/>
<path transform="translate(714,849)" d="m0 0m-2 1 2 1-1 4 2 4v3h-2l-2-6-4 1 2-4z" fill="#EF5651"/>
<path transform="translate(469,1152)" d="m0 0h6l-1 3-10 2h-5l3-2z" fill="#E7AC15"/>
<path transform="translate(782 1e3)" d="m0 0h2l2 6v8l-2 1-2-10z" fill="#EF5751"/>
<path transform="translate(752,919)" d="m0 0h2l8 12-3 1-7-10z" fill="#EA614B"/>
<path transform="translate(946,763)" d="m0 0 6 2 5 5 3 4v2h-2v-2h-2l-1-5-4-2-5-2z" fill="#FBEAD4"/>
<path transform="translate(1076,739)" d="m0 0 11 4-4 1-1 2-4-3-8-1-3-1z" fill="#F6C43E"/>
<path transform="translate(601,984)" d="m0 0 6 2 3 3-1 1h-7z" fill="#E9584F"/>
<path transform="translate(198,792)" d="m0 0h2l-2 4-9 4h-3l3-3z" fill="#FBE8CD"/>
<path transform="translate(1053,708)" d="m0 0h5l-3 4-6 2h-9v-1l11-2v-2z" fill="#FBEAD4"/>
<path transform="translate(349,1162)" d="m0 0 13 3-1 2-9-1-4-1z" fill="#E7AC13"/>
<path transform="translate(817,1084)" d="m0 0 4 5 3 3 9 2v3l-11-3-5-7z" fill="#FED561"/>
<path transform="translate(347,1061)" d="m0 0h1v7h-10l4-3 4-1z" fill="#43413D"/>
<path transform="translate(1064,666)" d="m0 0h10l6 3-4 1-4-1h-8z" fill="#FBEAD4"/>
<path transform="translate(420,498)" d="m0 0 13 1 1 2h-8l-5-1-3 3h-2l2-4z" fill="#FDC630"/>
<path transform="translate(788,901)" d="m0 0 3 1 1 3-4 2-5-3 2-2z" fill="#F2EBE1"/>
<path transform="translate(1055,647)" d="m0 0 7 6 2 3 1 9-2 1-1-9-5-5z" fill="#FBEAD4"/>
<path transform="translate(467,486)" d="m0 0h6l-6 7-3-4z" fill="#FDC630"/>
<path transform="translate(528,397)" d="m0 0h6l-2 1-1 2h-7l-5 1-2-2z" fill="#FBEAD4"/>
<path transform="translate(1100,764)" d="m0 0 16 2v1h-8l-2 4-5-5z" fill="#EFBC33"/>
<path transform="translate(573,1180)" d="m0 0 2 1 17-1v1l-18 3z" fill="#FDCD48"/>
<path transform="translate(958,688)" d="m0 0 3 4 1 3 5 5 1 2-4-2-5-6z" fill="#FBEAD4"/>
</svg>
